<svg width="47" height="64" viewBox="0 0 47 64" fill="none" xmlns="http://www.w3.org/2000/svg">
<path fill-rule="evenodd" clip-rule="evenodd" d="M1.11701 34.4621C0.127005 33.9921 1.11701 32.7861 1.58701 32.4191C2.57701 31.6861 3.883 31.4241 5.083 31.5191L4.979 33.6671C4.927 34.7671 4.66601 34.2971 3.88301 34.8721C3.04801 35.4481 1.223 36.2861 1.118 34.4521L1.11701 34.4621ZM38.11 57.3001C39.52 58.2001 42.127 60.8621 39.988 62.1701C37.953 64.0561 36.805 60.0751 34.978 59.5501C35.761 58.5021 36.752 57.5071 38.108 57.2981L38.11 57.3001ZM12.65 60.3381C10.98 60.6001 10.04 62.1181 8.63301 62.9051C7.32901 63.6911 6.80701 62.6431 6.70301 62.4351C6.49301 62.3301 6.493 62.5401 6.181 62.2351C4.981 60.2971 7.433 58.8831 8.738 57.9401C10.564 57.5201 11.712 59.0921 12.651 60.3401L12.65 60.3381ZM45.99 34.2001C45.886 36.0331 44.06 35.1951 43.225 34.6201C42.442 34.0441 42.182 34.5151 42.129 33.4151L42.025 31.2671C43.225 31.1621 44.529 31.4241 45.521 32.1671C46.043 32.5871 46.981 33.7371 45.991 34.2101L45.99 34.2001Z" fill="#F6D2A2"/>
<path d="M2.11 35.7702C1.745 35.7702 1.06701 35.6132 0.962006 34.5652C0.649006 34.3652 0.545002 34.0952 0.545002 33.9352C0.493002 33.3052 1.171 32.5732 1.535 32.3112C2.37 31.6812 3.465 31.3682 4.613 31.3682H5.291V31.5252C5.343 32.1012 5.291 32.6772 5.239 33.2012C5.239 33.3582 5.239 33.5152 5.187 33.6712C5.135 34.4572 4.977 34.5712 4.613 34.7192C4.456 34.7712 4.30001 34.8242 4.03901 35.0332C3.77901 35.1902 2.89101 35.7662 2.10901 35.7662L2.11 35.7702ZM4.614 31.6842C3.518 31.6842 2.527 31.9982 1.744 32.5842C1.379 32.8462 0.857005 33.4842 0.909005 33.8842C0.909005 34.0412 1.013 34.1982 1.222 34.3042L1.326 34.3562V34.4612C1.378 35.2992 1.79601 35.4042 2.10901 35.4042C2.63101 35.4042 3.36101 35.0372 3.83101 34.7242C4.14401 34.5242 4.35301 34.4622 4.50901 34.4102C4.76901 34.3052 4.822 34.3052 4.874 33.6772C4.874 33.5202 4.87401 33.3632 4.92601 33.2072C4.97801 32.7372 4.978 32.2122 4.978 31.7402C4.821 31.6882 4.718 31.6882 4.613 31.6882L4.614 31.6842Z" fill="black"/>
<path fill-rule="evenodd" clip-rule="evenodd" d="M1.117 34.462C1.377 34.357 1.691 34.305 1.847 34.042L1.117 34.462Z" fill="#C6B198"/>
<path d="M1.11701 34.62C1.06501 34.62 0.960006 34.568 0.960006 34.515C0.908006 34.41 0.960006 34.315 1.06401 34.315C1.11601 34.315 1.16801 34.263 1.16801 34.263C1.37801 34.158 1.58501 34.106 1.69001 33.949C1.74201 33.897 1.84701 33.844 1.95001 33.897C2.00201 33.949 2.05401 34.054 2.00201 34.159C1.82981 34.3712 1.59084 34.5189 1.32401 34.578L1.22001 34.63H1.11601L1.11701 34.62Z" fill="black"/>
<path fill-rule="evenodd" clip-rule="evenodd" d="M5.396 12.305C-1.7 10.305 3.57 1.253 9.256 4.972L5.396 12.305Z" fill="#6AD7E5"/>
<path d="M5.50001 12.5141L5.34301 12.4621C1.69101 11.4141 1.74301 8.79507 1.84701 8.01007C2.10701 6.01007 3.987 3.92407 6.49 3.92407C7.48 3.92407 8.42001 4.23807 9.36001 4.86707L9.517 4.97207L5.50001 12.5141ZM6.49 4.29007C4.142 4.29007 2.42001 6.22807 2.16001 8.06007C1.90001 9.94607 3.04701 11.4121 5.29001 12.0931L8.99401 5.02307C8.21101 4.55307 7.377 4.29007 6.49 4.29007Z" fill="black"/>
<path fill-rule="evenodd" clip-rule="evenodd" d="M36.857 4.3C42.44 0.370003 47.553 9.276 41.031 11.53L36.857 4.3Z" fill="#6AD7E5"/>
<path d="M40.978 11.7301L36.648 4.23015L36.805 4.12515C37.805 3.44515 38.788 3.07715 39.779 3.07715C42.179 3.07715 43.901 5.07715 44.266 7.00715C44.423 7.79315 44.579 10.4641 41.136 11.6071L40.979 11.7121L40.978 11.7301ZM37.118 4.39715L41.135 11.3641C43.17 10.6311 44.213 9.05915 43.9 7.16415C43.587 5.38415 41.97 3.55015 39.778 3.55015C38.891 3.49815 38.004 3.75015 37.118 4.38815V4.39715ZM38.9 62.8521C38.065 62.8521 37.335 62.0141 36.7 61.2281C36.126 60.5981 35.552 59.9282 34.926 59.7081L34.666 59.6561L34.823 59.4562C35.449 58.5561 36.493 57.4132 38.058 57.1511H38.11L38.162 57.2032C39.049 57.7792 40.979 59.4031 40.927 60.9231C40.927 61.4991 40.614 61.9711 40.04 62.3371C39.675 62.7041 39.31 62.8611 38.892 62.8611L38.9 62.8521ZM35.248 59.4471C35.874 59.7091 36.396 60.3902 36.918 60.9672C37.544 61.7532 38.17 62.4341 38.848 62.4341C39.161 62.4341 39.474 62.2771 39.788 61.9641H39.84C40.31 61.6501 40.57 61.2841 40.57 60.8121C40.57 59.6071 39.057 58.0881 38.013 57.4071C37.073 57.6691 36.135 58.3071 35.248 59.4501V59.4471ZM39.996 62.3272C39.944 62.3272 39.892 62.2752 39.839 62.2221C39.7274 62.0058 39.6402 61.7778 39.579 61.5421C39.422 61.1222 39.266 60.7041 38.953 60.3901C38.901 60.3382 38.901 60.2331 38.953 60.1281C39.005 60.0761 39.11 60.0761 39.213 60.1281C39.578 60.4951 39.787 60.9661 39.943 61.4282L40.203 62.0581C40.255 62.1631 40.203 62.2581 40.151 62.3201H39.994L39.996 62.3272Z" fill="black"/>
<path d="M7.74299 63.3241C7.06499 63.3241 6.7 62.7481 6.595 62.5381H6.543C6.386 62.5381 6.283 62.4861 6.073 62.2761V62.2241C4.925 60.3911 6.90799 58.9761 8.21299 58.0241L8.683 57.7101H8.787C8.987 57.6581 9.152 57.6581 9.361 57.6581C10.926 57.6581 11.918 59.0201 12.761 60.1201L13.021 60.4871L12.708 60.5391C11.708 60.6961 10.986 61.3251 10.256 61.9531C9.78599 62.3731 9.316 62.7391 8.796 63.0531C8.379 63.2101 8.066 63.3151 7.753 63.3151L7.74299 63.3241ZM6.595 62.2241C6.647 62.2241 6.699 62.2241 6.795 62.2761H6.847L6.899 62.3281C7.003 62.4851 7.264 62.9581 7.786 62.9581C8.046 62.9581 8.308 62.8531 8.569 62.6961C9.091 62.4341 9.569 62.0161 9.969 61.6481C10.647 61.0721 11.369 60.4431 12.317 60.1811C11.534 59.1331 10.595 57.9811 9.291 57.9811C9.134 57.9811 8.978 57.9811 8.821 58.0331L8.404 58.3471C7.047 59.2901 5.378 60.4951 6.369 62.0671C6.421 62.1721 6.473 62.2241 6.569 62.2241H6.595ZM6.69899 62.5911C6.59499 62.5911 6.499 62.4861 6.542 62.3911C6.594 61.8671 6.85499 61.4911 7.11599 61.0911C7.25694 60.8933 7.37914 60.6827 7.481 60.4621C7.533 60.3571 7.638 60.3571 7.681 60.3571C7.785 60.4091 7.785 60.5141 7.785 60.5571C7.681 60.8191 7.52499 61.0271 7.36799 61.2371C7.10799 61.6041 6.898 61.9171 6.846 62.3371C6.846 62.5371 6.794 62.5991 6.689 62.5991L6.69899 62.5911ZM5.709 9.84313C4.769 9.37313 4.092 8.69113 4.666 7.59113C5.188 6.59613 6.17899 6.69113 7.11799 7.17113L5.718 9.84113L5.709 9.84313ZM39.569 8.90013C40.509 8.43013 41.186 7.74814 40.612 6.64814C40.09 5.65314 39.099 5.74814 38.16 6.22813L39.56 8.89814L39.569 8.90013ZM45.047 35.5001C44.264 35.5001 43.377 34.9241 43.117 34.7671C42.857 34.6101 42.7 34.5051 42.543 34.4531C42.126 34.2961 42.021 34.1911 41.969 33.4051C41.969 33.2481 41.969 33.0911 41.917 32.9351C41.865 32.4111 41.813 31.8351 41.865 31.2591V31.0991H42.543C43.691 31.0991 44.786 31.4131 45.621 32.0421C45.986 32.3041 46.664 33.0371 46.621 33.6661C46.621 33.8661 46.517 34.1361 46.204 34.2961C46.1 35.3441 45.421 35.5011 45.056 35.5011L45.047 35.5001ZM42.177 31.4671L42.229 32.9341C42.229 33.0911 42.229 33.2481 42.281 33.4041C42.333 34.0341 42.385 34.0341 42.646 34.1371C42.803 34.1891 43.011 34.2941 43.324 34.4511C43.794 34.7651 44.524 35.1311 45.046 35.1311C45.359 35.1311 45.776 35.0261 45.829 34.1881V34.0831L45.933 34.0311C46.133 33.9261 46.246 33.8311 46.246 33.6111C46.298 33.1911 45.776 32.5631 45.411 32.3111C44.628 31.7351 43.585 31.4111 42.541 31.4111C42.437 31.4631 42.341 31.4631 42.176 31.4631L42.177 31.4671Z" fill="black"/>
<path fill-rule="evenodd" clip-rule="evenodd" d="M45.987 34.2C45.727 34.095 45.413 34.043 45.257 33.78L45.987 34.2Z" fill="#C6B198"/>
<path d="M45.987 34.4H45.935L45.831 34.348C45.571 34.243 45.309 34.191 45.153 33.928C45.101 33.876 45.101 33.728 45.205 33.666C45.257 33.614 45.415 33.614 45.465 33.718C45.569 33.875 45.778 33.918 45.987 34.032C46.039 34.032 46.091 34.084 46.091 34.084C46.195 34.136 46.248 34.241 46.195 34.284C46.142 34.327 46.038 34.389 45.985 34.389L45.987 34.4Z" fill="black"/>
<path fill-rule="evenodd" clip-rule="evenodd" d="M22.874 0.570091C29.97 0.570091 36.596 1.56509 40.091 8.42709C43.221 16.0751 42.074 24.3511 42.595 32.4701C43.012 39.4371 43.899 47.4501 40.717 53.8941C37.327 60.6511 28.874 62.3801 21.934 62.1181C16.456 61.9181 9.882 60.1181 6.751 55.0981C3.151 49.2311 4.821 40.4841 5.081 33.9361C5.394 26.1841 2.99401 18.3791 5.55101 10.8361C8.10801 2.93609 15.203 1.13609 22.873 0.569092" fill="#6AD7E5"/>
<path d="M23.135 62.3301H21.83C19.69 62.2781 16.456 61.9101 13.273 60.6001C10.195 59.3431 7.951 57.5621 6.49 55.2051C3.568 50.4381 4.09 43.8911 4.56 38.0751L4.82 33.9371C4.924 31.2131 4.716 28.3851 4.455 25.7131C4.038 20.7891 3.62 15.7081 5.238 10.7831C6.49 7.11606 8.734 4.49706 12.125 2.82106C14.785 1.52106 18.073 0.778057 22.768 0.421057C29.758 0.369057 36.698 1.36406 40.194 8.32106C42.49 13.9261 42.49 19.9511 42.542 25.7641C42.542 27.9641 42.542 30.2161 42.699 32.4161C42.751 33.0961 42.803 33.7781 42.803 34.4591C43.22 40.8591 43.69 48.0791 40.768 53.9451C39.308 56.9311 36.751 59.1311 33.255 60.5451C30.438 61.6971 26.89 62.3251 23.133 62.3251L23.135 62.3301ZM22.875 0.730057C15.518 1.30606 8.318 2.93006 5.658 10.8921C4.041 15.7621 4.458 20.7921 4.875 25.6621C5.085 28.3861 5.345 31.1621 5.24 33.9381C5.188 35.2381 5.083 36.6081 4.98 38.0761C4.51 43.8381 3.99 50.3331 6.858 54.9961C8.058 56.9341 11.918 61.5441 21.884 61.9101H23.188C34.718 61.9101 38.998 56.7771 40.562 53.7401C43.432 47.9781 42.962 40.7401 42.597 34.4101C42.545 33.7301 42.493 33.0481 42.493 32.3671C42.389 30.1671 42.336 27.9151 42.336 25.7151C42.284 19.9531 42.284 13.9291 40.04 8.37706C38.475 5.27706 36.127 3.19106 32.892 1.97706C29.552 0.877057 25.796 0.720058 22.875 0.720058V0.730057Z" fill="black"/>
<path fill-rule="evenodd" clip-rule="evenodd" d="M24.126 10.1051C23.709 3.24309 34.196 1.35709 35.761 8.06209C37.483 15.5621 25.378 17.5421 24.126 10.1051ZM9.67401 11.3001C8.05701 3.33809 20.787 1.87009 21.257 9.62409C21.622 16.1191 11.344 17.7441 9.67401 11.3001Z" fill="white"/>
<path d="M29.865 14.9761C27.517 14.9761 24.543 13.7191 23.917 10.1561C23.813 8.48014 24.334 6.96114 25.43 5.80814C26.63 4.50814 28.456 3.76514 30.334 3.76514C32.534 3.76514 35.134 4.91714 35.864 8.11314C36.281 9.89314 35.968 11.4651 34.977 12.7131C33.881 14.0751 31.951 14.9651 29.864 14.9651L29.865 14.9761ZM24.282 10.1061C24.542 11.5731 25.222 12.7261 26.317 13.5631C27.257 14.2961 28.56 14.6631 29.865 14.6631C31.795 14.6631 33.665 13.8251 34.717 12.5151C35.657 11.3631 35.917 9.84514 35.552 8.16714C34.874 5.18114 32.422 4.13414 30.335 4.13414C28.561 4.13414 26.839 4.86714 25.692 6.07214C24.692 7.12014 24.179 8.53414 24.292 10.1051L24.282 10.1061ZM28.822 9.79214C28.822 10.8401 28.039 11.6781 27.1 11.6781C26.161 11.6781 25.378 10.8401 25.378 9.79214C25.378 8.74414 26.161 7.90614 27.1 7.90614C28.039 7.90614 28.822 8.74414 28.822 9.79214ZM15.152 15.6051C12.909 15.6051 10.3 14.5051 9.465 11.3621C9.1 9.52914 9.46501 7.86214 10.508 6.59514C11.656 5.18114 13.534 4.34314 15.568 4.34314C18.281 4.34314 21.151 5.96714 21.368 9.64314C21.472 11.1631 21.003 12.5231 19.968 13.6231C18.872 14.8281 17.046 15.6231 15.168 15.6231L15.152 15.6051ZM15.57 4.70014C13.64 4.70014 11.866 5.48614 10.77 6.79514C9.77 8.00014 9.466 9.51914 9.83 11.2471C10.56 14.1801 13.065 15.2271 15.152 15.2271C16.926 15.2271 18.648 14.5471 19.752 13.3411C20.2198 12.8483 20.5778 12.262 20.8026 11.6209C21.0273 10.9797 21.1137 10.2981 21.056 9.62114C20.952 7.36914 19.439 4.69714 15.578 4.69714L15.57 4.70014ZM14.266 10.2521C14.266 11.3001 13.483 12.1381 12.544 12.1381C11.605 12.1381 10.822 11.3001 10.822 10.2521C10.822 9.20414 11.605 8.36614 12.544 8.36614C13.483 8.36614 14.266 9.20414 14.266 10.2521Z" fill="black"/>
<path fill-rule="evenodd" clip-rule="evenodd" d="M25.587 19.0001C25.587 19.9431 25.797 21.0431 25.639 22.1001C25.379 22.5701 24.909 22.6241 24.491 22.7801C23.917 22.6751 23.448 22.3101 23.187 21.7851C23.03 20.6331 23.239 19.4801 23.291 18.3281L25.587 19.0081V19.0001Z" fill="white"/>
<path d="M24.49 23C23.812 22.895 23.29 22.476 23.03 21.9C22.926 21.062 22.978 20.276 23.03 19.5C23.082 19.133 23.082 18.767 23.082 18.4V18.2L25.742 19.0379V19.143C25.742 19.457 25.794 19.773 25.794 20.138C25.846 20.818 25.898 21.552 25.794 22.233V22.285C25.584 22.705 25.22 22.809 24.854 22.965C24.75 22.913 24.644 22.9649 24.489 23.0169L24.49 23ZM23.342 21.743C23.552 22.213 23.968 22.529 24.438 22.643C24.542 22.591 24.648 22.5909 24.698 22.5379C25.011 22.4329 25.272 22.338 25.428 22.068C25.532 21.438 25.48 20.768 25.428 20.068C25.428 19.754 25.376 19.4379 25.376 19.1679L23.393 18.5379C23.393 18.8519 23.341 19.168 23.341 19.438C23.289 20.276 23.237 21.008 23.341 21.743H23.342Z" fill="black"/>
<path fill-rule="evenodd" clip-rule="evenodd" d="M13.7 10.68C13.7 10.942 13.5 11.15 13.283 11.15C13.066 11.15 12.866 10.95 12.866 10.68C12.866 10.41 13.066 10.21 13.283 10.21C13.543 10.21 13.7 10.41 13.7 10.68ZM28.3 10.2C28.3 10.462 28.143 10.67 27.883 10.67C27.683 10.67 27.466 10.47 27.466 10.2C27.466 9.92998 27.623 9.72998 27.883 9.72998C28.083 9.72998 28.3 9.92998 28.3 10.2ZM20.578 18.905C19.795 20.738 20.995 24.457 23.082 21.735C22.925 20.583 23.134 19.43 23.186 18.278L20.586 18.908L20.578 18.905Z" fill="white"/>
<path d="M21.674 22.8859C21.309 22.8859 20.944 22.6859 20.684 22.2559C20.11 21.4179 20.006 19.8559 20.424 18.8509L20.476 18.7459L23.346 18.0129V18.2129L23.294 19.3649C23.242 20.1509 23.19 20.8849 23.294 21.6699V21.7219L23.242 21.7739C22.72 22.5069 22.199 22.8739 21.677 22.8739L21.674 22.8859ZM20.734 19.0619C20.421 19.9619 20.524 21.3669 20.994 22.0479C21.204 22.3619 21.411 22.5179 21.672 22.5179C22.037 22.5179 22.455 22.2039 22.872 21.6799C22.768 20.8939 22.82 20.1099 22.924 19.3749L22.976 18.4749L20.733 19.0509L20.734 19.0619Z" fill="black"/>
<path fill-rule="evenodd" clip-rule="evenodd" d="M20.84 15.3431C19.43 15.4481 18.283 17.1761 19.014 18.4861C20.004 20.2661 22.144 18.3291 23.501 18.4861C25.066 18.5381 26.318 20.1621 27.571 18.8001C28.981 17.2801 26.945 15.8141 25.431 15.1331L20.841 15.3331L20.84 15.3431Z" fill="#F6D2A2"/>
<path d="M26.474 19.5331C26.004 19.5331 25.534 19.3331 25.064 19.1131C24.594 18.8931 24.074 18.6931 23.499 18.6931H23.342C22.925 18.6931 22.455 18.8501 21.932 19.0601C21.358 19.2601 20.784 19.4271 20.262 19.4271C19.636 19.4271 19.166 19.1651 18.852 18.5891C18.487 17.9591 18.539 17.2271 18.904 16.5461C19.321 15.7601 20.052 15.2891 20.834 15.1841L25.53 14.9841C26.678 15.4541 27.982 16.3461 28.243 17.3841C28.347 17.9081 28.191 18.4321 27.773 18.9041C27.355 19.3761 26.938 19.5341 26.469 19.5341L26.474 19.5331ZM23.552 18.3811C24.126 18.3811 24.7 18.6431 25.222 18.8511C25.692 19.0511 26.109 19.2181 26.526 19.2181C26.891 19.2181 27.204 19.0611 27.516 18.7481C27.6766 18.5951 27.7983 18.4059 27.8708 18.1963C27.9434 17.9866 27.9647 17.7627 27.933 17.5431C27.723 16.6431 26.473 15.8131 25.481 15.3951L20.941 15.5951C20.263 15.6471 19.637 16.1191 19.271 16.7471C18.958 17.3231 18.958 17.9521 19.219 18.4771C19.479 18.9471 19.793 19.1571 20.315 19.1571C20.785 19.1571 21.305 18.9571 21.828 18.7901C22.402 18.5901 22.871 18.4231 23.393 18.4231C23.393 18.3181 23.445 18.3181 23.55 18.3711L23.552 18.3811Z" fill="#231F20"/>
<path d="M20.683 15.3001C20.579 12.8381 25.273 12.5241 25.796 14.5671C26.37 16.6621 20.892 17.1341 20.683 15.3001Z" fill="black"/>
</svg>

