<svg width="166" height="94" viewBox="0 0 166 94" fill="none" xmlns="http://www.w3.org/2000/svg">
<path d="M84 79C101.673 79 116 64.6731 116 47C116 29.3269 101.673 15 84 15C66.3269 15 52 29.3269 52 47C52 64.6731 66.3269 79 84 79Z" fill="#5C2D91"/>
<path opacity="0.1" d="M61.82 24C57.471 27.8756 54.2624 32.8647 52.5401 38.4296C50.8179 43.9944 50.6474 49.9239 52.0469 55.5785C53.4464 61.2332 56.363 66.3985 60.482 70.5176C64.6011 74.6367 69.7664 77.5534 75.421 78.953C81.0757 80.3526 87.0052 80.1822 92.5702 78.4599C98.1351 76.7377 103.124 73.5291 107 69.18L61.82 24Z" fill="white"/>
<path d="M59.4 52.25C59.2133 52.253 59.0281 52.2172 58.856 52.1449C58.6838 52.0726 58.5286 51.9654 58.4 51.83C58.2679 51.6995 58.1635 51.5437 58.093 51.3718C58.0226 51.2 57.9875 51.0157 57.99 50.83C57.9887 50.6445 58.0242 50.4605 58.0946 50.2889C58.165 50.1172 58.2688 49.9612 58.4 49.83C58.5273 49.6924 58.6821 49.583 58.8544 49.5089C59.0266 49.4348 59.2125 49.3977 59.4 49.4C59.5872 49.3996 59.7725 49.4375 59.9445 49.5114C60.1165 49.5854 60.2715 49.6938 60.4 49.83C60.5334 49.96 60.6394 50.1156 60.7116 50.2874C60.7837 50.4592 60.8206 50.6437 60.82 50.83C60.8217 51.0165 60.7854 51.2014 60.7132 51.3734C60.6409 51.5453 60.5344 51.7007 60.4 51.83C60.2703 51.9639 60.1149 52.0702 59.943 52.1424C59.7711 52.2146 59.5864 52.2512 59.4 52.25ZM79.27 52H76.65L67.28 37.46C67.0466 37.1018 66.8521 36.7196 66.7 36.32H66.62C66.709 37.1502 66.7424 37.9854 66.72 38.82V52H64.6V33.77H67.37L76.49 48.05L77.23 49.27H77.28C77.1745 48.3808 77.131 47.4853 77.15 46.59V33.77H79.28V52H79.27ZM93.7 52H84V33.77H93.24V35.7H86.18V41.76H92.76V43.68H86.18V50H93.7V52ZM108 35.7H102.7V52H100.57V35.7H95.33V33.77H108V35.7Z" fill="white"/>
<path d="M78.12 64.3999C77.398 64.7496 76.6017 64.9178 75.8 64.8899C75.2673 64.9139 74.7356 64.8237 74.2406 64.6254C73.7456 64.427 73.2987 64.1251 72.93 63.7399C72.1952 62.9174 71.8081 61.842 71.85 60.7399C71.8231 60.1432 71.9163 59.5472 72.1242 58.9872C72.332 58.4271 72.6503 57.9146 73.06 57.4799C73.4593 57.0709 73.9393 56.7494 74.4695 56.5359C74.9998 56.3225 75.5687 56.2217 76.14 56.2399C76.8237 56.2166 77.5048 56.3358 78.14 56.5899V57.5899C77.5285 57.2514 76.8389 57.079 76.14 57.0899C75.6994 57.0775 75.2613 57.1605 74.8557 57.333C74.4501 57.5056 74.0866 57.7638 73.79 58.0899C73.1663 58.8004 72.8436 59.7257 72.89 60.6699C72.8433 61.5644 73.1443 62.4423 73.73 63.1199C74.0109 63.422 74.3539 63.6598 74.7354 63.8169C75.1168 63.9739 75.5278 64.0466 75.94 64.0299C76.7078 64.05 77.4661 63.8561 78.13 63.4699L78.12 64.3999ZM82.2 64.8999C81.8019 64.9128 81.4057 64.84 81.0382 64.6865C80.6708 64.5329 80.3405 64.3022 80.07 64.0099C79.5232 63.3997 79.2393 62.5983 79.28 61.7799C79.255 61.3512 79.3155 60.9217 79.458 60.5166C79.6005 60.1114 79.8221 59.7387 80.11 59.4199C80.4038 59.1332 80.7532 58.9099 81.1368 58.7636C81.5204 58.6174 81.9299 58.5515 82.34 58.5699C82.7276 58.5493 83.1151 58.6128 83.4759 58.7561C83.8366 58.8993 84.1621 59.119 84.43 59.3999C84.9615 60.0405 85.2296 60.8591 85.18 61.6899C85.2219 62.5331 84.9311 63.3591 84.37 63.9899C84.0943 64.2879 83.758 64.5233 83.3837 64.6802C83.0093 64.8372 82.6057 64.9121 82.2 64.8999ZM82.27 59.4299C81.9949 59.4184 81.7208 59.469 81.468 59.5781C81.2152 59.6872 80.9903 59.8519 80.81 60.0599C80.4252 60.5554 80.2333 61.1737 80.27 61.7999C80.2351 62.4076 80.4276 63.0064 80.81 63.4799C80.9921 63.6851 81.2177 63.8471 81.4702 63.9543C81.7227 64.0616 81.9959 64.1113 82.27 64.0999C82.5383 64.1158 82.8068 64.0699 83.0546 63.9659C83.3025 63.8619 83.5233 63.7025 83.7 63.4999C84.0635 63.0031 84.2406 62.3942 84.2 61.7799C84.2395 61.1627 84.0627 60.5509 83.7 60.0499C83.5257 59.8431 83.3059 59.6795 83.0578 59.5719C82.8097 59.4644 82.54 59.4158 82.27 59.4299ZM89.87 59.7299C89.654 59.5884 89.3976 59.5217 89.14 59.5399C88.9385 59.5473 88.742 59.604 88.5676 59.7051C88.3932 59.8063 88.2464 59.9487 88.14 60.1199C87.8424 60.5912 87.699 61.1434 87.73 61.6999V64.7599H86.73V58.7599H87.73V59.9999C87.8399 59.6132 88.0586 59.2661 88.36 58.9999C88.6208 58.7736 88.9547 58.6493 89.3 58.6499C89.4933 58.6412 89.6865 58.6684 89.87 58.7299V59.7299ZM95.72 61.9999H91.5C91.4716 62.559 91.6535 63.1084 92.01 63.5399C92.1953 63.7248 92.4176 63.8685 92.6623 63.9615C92.907 64.0546 93.1686 64.0949 93.43 64.0799C94.1079 64.0732 94.7635 63.837 95.29 63.4099V64.3099C94.6717 64.7175 93.9395 64.9171 93.2 64.8799C92.8268 64.8988 92.4541 64.835 92.1084 64.6933C91.7627 64.5516 91.4525 64.3353 91.2 64.0599C90.6794 63.4106 90.4192 62.5907 90.47 61.7599C90.434 60.9272 90.7165 60.1119 91.26 59.4799C91.5073 59.1942 91.8151 58.9671 92.1609 58.8149C92.5068 58.6627 92.8822 58.5893 93.26 58.5999C93.6011 58.5808 93.942 58.6393 94.2573 58.7709C94.5725 58.9026 94.8538 59.1039 95.08 59.3599C95.5404 59.9671 95.7675 60.7194 95.72 61.4799L95.73 61.9999H95.72ZM94.72 61.1999C94.7403 60.7366 94.5989 60.2805 94.32 59.9099C94.1831 59.7553 94.0131 59.6336 93.8226 59.554C93.6322 59.4743 93.4261 59.4388 93.22 59.4499C93.0048 59.4473 92.7914 59.4895 92.5934 59.5739C92.3954 59.6582 92.2171 59.7829 92.07 59.9399C91.7409 60.2881 91.5338 60.7338 91.48 61.2099H94.72V61.1999Z" fill="#F2F2F2"/>
</svg>
