<svg width="94" height="57" viewBox="0 0 94 57" fill="none" xmlns="http://www.w3.org/2000/svg">
<path d="M46.47 56.8361C46.152 56.8361 45.855 56.7521 45.58 56.6061L42.758 54.9491C42.334 54.7191 42.546 54.6341 42.673 54.5921C43.246 54.4021 43.353 54.3621 43.946 54.0261C44.01 53.9841 44.096 54.0061 44.158 54.0461L46.322 55.3261C46.407 55.3681 46.512 55.3681 46.576 55.3261L55.042 50.4801C55.127 50.4381 55.169 50.3541 55.169 50.2501V40.5781C55.169 40.4731 55.126 40.3881 55.042 40.3481L46.576 35.5231C46.491 35.4811 46.386 35.4811 46.322 35.5231L37.856 40.3481C37.771 40.3901 37.729 40.4951 37.729 40.5781V50.2501C37.729 50.3341 37.772 50.4401 37.856 50.4801L40.169 51.8021C41.421 52.4321 42.206 51.6971 42.206 50.9621V41.4161C42.206 41.2901 42.312 41.1641 42.461 41.1641H43.543C43.67 41.1641 43.798 41.2691 43.798 41.4161V50.9621C43.798 52.6191 42.886 53.5851 41.294 53.5851C40.806 53.5851 40.424 53.5851 39.342 53.0601L37.114 51.8001C36.562 51.4851 36.224 50.8981 36.224 50.2681V40.5961C36.224 39.9661 36.564 39.3791 37.114 39.0641L45.58 34.2181C46.11 33.9241 46.832 33.9241 47.363 34.2181L55.829 39.0641C56.381 39.3791 56.719 39.9661 56.719 40.5961V50.2681C56.719 50.8981 56.379 51.4851 55.829 51.8001L47.363 56.6461C47.0825 56.7708 46.779 56.8352 46.472 56.8351L46.47 56.8361ZM49.07 50.1861C45.357 50.1861 44.593 48.5081 44.593 47.0811C44.593 46.9551 44.699 46.8291 44.848 46.8291H45.951C46.078 46.8291 46.184 46.9131 46.184 47.0291C46.354 48.1411 46.842 48.6861 49.091 48.6861C50.873 48.6861 51.637 48.2861 51.637 47.3431C51.637 46.7981 51.425 46.3991 48.645 46.1261C46.332 45.8961 44.889 45.3921 44.889 43.5661C44.889 41.8661 46.332 40.8591 48.751 40.8591C51.467 40.8591 52.804 41.7821 52.974 43.7961C52.974 43.8591 52.954 43.9221 52.91 43.9861C52.867 44.0281 52.804 44.0701 52.74 44.0701H51.637C51.531 44.0701 51.425 43.9861 51.404 43.8801C51.149 42.7261 50.492 42.3481 48.752 42.3481C46.8 42.3481 46.566 43.0181 46.566 43.5231C46.566 44.1311 46.842 44.3201 49.473 44.6561C52.073 44.9921 53.313 45.4741 53.313 47.2791C53.293 49.1251 51.763 50.1741 49.069 50.1741L49.07 50.1861Z" fill="#539E43"/>
<path d="M20.2 19.0081C20.2 18.6301 19.988 18.2741 19.648 18.0851L10.651 12.9651C10.501 12.8811 10.333 12.8391 10.163 12.8181H10.078C9.90802 12.8181 9.73802 12.8811 9.59002 12.9651L0.593016 18.0851C0.253016 18.2751 0.0410156 18.6301 0.0410156 19.0081L0.0610156 32.7711C0.0605054 32.866 0.0859522 32.9592 0.134601 33.0406C0.18325 33.122 0.253247 33.1886 0.337016 33.2331C0.507016 33.3381 0.719016 33.3381 0.867016 33.2331L6.21402 30.2131C6.55402 30.0231 6.76602 29.6681 6.76602 29.2901V22.8501C6.76602 22.4721 6.97802 22.1161 7.31802 21.9271L9.58802 20.6271C9.75802 20.5221 9.94802 20.4801 10.14 20.4801C10.3279 20.4737 10.5132 20.525 10.671 20.6271L12.941 21.9271C13.281 22.1171 13.493 22.4721 13.493 22.8501V29.2901C13.493 29.6681 13.705 30.0241 14.045 30.2131L19.392 33.2331C19.562 33.3381 19.774 33.3381 19.944 33.2331C20.0278 33.1886 20.0978 33.122 20.1464 33.0406C20.1951 32.9592 20.2205 32.866 20.22 32.7711L20.2 19.0081ZM63.445 0.0631132C63.3627 0.0216159 63.2717 0 63.1795 0C63.0873 0 62.9964 0.0216159 62.914 0.0631132C62.744 0.168113 62.638 0.336113 62.638 0.523113V14.1601C62.638 14.2861 62.574 14.4121 62.448 14.4961C62.3891 14.5271 62.3236 14.5433 62.257 14.5433C62.1905 14.5433 62.1249 14.5271 62.066 14.4961L59.816 13.2161C59.481 13.0261 59.069 13.0261 58.734 13.2161L49.737 18.3561C49.397 18.5461 49.185 18.9011 49.185 19.2791V29.5391C49.185 29.9171 49.397 30.2731 49.737 30.4621L58.734 35.6021C59.069 35.7921 59.481 35.7921 59.816 35.6021L68.813 30.4621C69.153 30.2721 69.365 29.9171 69.365 29.5391V3.96511C69.365 3.56511 69.153 3.21011 68.813 3.02111L63.445 0.0631132ZM62.618 26.1631C62.618 26.2681 62.576 26.3531 62.491 26.3931L59.414 28.1551C59.327 28.1971 59.224 28.1971 59.138 28.1551L56.061 26.3931C55.976 26.3511 55.934 26.2461 55.934 26.1631V22.6381C55.934 22.5331 55.976 22.4481 56.061 22.4081L59.138 20.6461C59.225 20.6041 59.328 20.6041 59.414 20.6461L62.491 22.4081C62.576 22.4501 62.618 22.5551 62.618 22.6381V26.1631ZM93.385 22.5531C93.725 22.3631 93.915 22.0081 93.915 21.6301V19.1331C93.9128 18.9467 93.8629 18.764 93.7699 18.6024C93.6769 18.4408 93.5441 18.3057 93.384 18.2101L84.451 13.0901C84.116 12.9001 83.704 12.9001 83.369 13.0901L74.372 18.2301C74.032 18.4201 73.82 18.7751 73.82 19.1531V29.4131C73.82 29.7911 74.032 30.1471 74.372 30.3361L83.305 35.3711C83.645 35.5611 84.048 35.5611 84.365 35.3711L89.775 32.3911C89.8588 32.3466 89.9288 32.28 89.9774 32.1986C90.0261 32.1172 90.0515 32.024 90.051 31.9291C90.0515 31.8343 90.0261 31.7411 89.9774 31.6596C89.9288 31.5782 89.8588 31.5116 89.775 31.4671L80.735 26.3271C80.565 26.2221 80.459 26.0541 80.459 25.8671V22.6671C80.4585 22.5723 80.4839 22.4791 80.5326 22.3976C80.5813 22.3162 80.6512 22.2496 80.735 22.2051L83.557 20.6101C83.727 20.5051 83.94 20.5051 84.109 20.6101L86.931 22.2051C87.101 22.3101 87.207 22.4781 87.207 22.6671V25.1851C87.2067 25.2798 87.2322 25.3728 87.2809 25.454C87.3295 25.5353 87.3994 25.6017 87.483 25.6461C87.653 25.7511 87.865 25.7511 88.035 25.6461L93.382 22.5621L93.385 22.5531Z" fill="#333333"/>
<path d="M83.773 22.0701C83.837 22.0281 83.921 22.0281 83.985 22.0701L85.705 23.0561C85.769 23.0981 85.811 23.1611 85.811 23.2461V25.2181C85.8112 25.256 85.8015 25.2934 85.7829 25.3265C85.7643 25.3597 85.7375 25.3874 85.705 25.4071L83.985 26.3931C83.921 26.4351 83.837 26.4351 83.773 26.3931L82.053 25.4071C82.0205 25.3874 81.9937 25.3597 81.9751 25.3265C81.9566 25.2934 81.9469 25.256 81.947 25.2181V23.2461C81.947 23.1621 81.989 23.0991 82.053 23.0561L83.773 22.0701Z" fill="#539E43"/>
<path d="M35.244 13.1332C34.909 12.9432 34.497 12.9432 34.162 13.1332L25.229 18.2312C24.889 18.4212 24.699 18.7762 24.699 19.1542V29.3722C24.7012 29.5586 24.7512 29.7414 24.8441 29.903C24.9371 30.0646 25.07 30.1996 25.23 30.2952L34.163 35.3932C34.498 35.5832 34.91 35.5832 35.245 35.3932L44.178 30.2952C44.518 30.1052 44.708 29.7502 44.708 29.3722V19.1542C44.7058 18.9678 44.6559 18.7851 44.5629 18.6235C44.4699 18.4619 44.3371 18.3268 44.177 18.2312L35.244 13.1332Z" fill="url(#paint0_linear_1_764)"/>
<mask id="mask0_1_764" style="mask-type:alpha" maskUnits="userSpaceOnUse" x="24" y="12" width="21" height="24">
<path d="M35.244 13.1332C34.909 12.9432 34.497 12.9432 34.162 13.1332L25.229 18.2312C24.889 18.4212 24.699 18.7762 24.699 19.1542V29.3722C24.7012 29.5586 24.7512 29.7414 24.8441 29.903C24.9371 30.0646 25.07 30.1996 25.23 30.2952L34.163 35.3932C34.498 35.5832 34.91 35.5832 35.245 35.3932L44.178 30.2952C44.518 30.1052 44.708 29.7502 44.708 29.3722V19.1542C44.7058 18.9678 44.6559 18.7851 44.5629 18.6235C44.4699 18.4619 44.3371 18.3268 44.177 18.2312L35.244 13.1332Z" fill="white"/>
</mask>
<g mask="url(#mask0_1_764)">
<path d="M44.199 18.2313L35.214 13.1333C35.134 13.0793 35.044 13.0543 34.948 13.0293L24.89 30.0643C24.973 30.1643 25.074 30.2503 25.187 30.3163L34.163 35.4143C34.418 35.5613 34.715 35.6043 34.99 35.5193L44.434 18.4413C44.3664 18.3605 44.2876 18.2898 44.2 18.2313H44.199Z" fill="url(#paint1_linear_1_764)"/>
</g>
<mask id="mask1_1_764" style="mask-type:alpha" maskUnits="userSpaceOnUse" x="24" y="12" width="21" height="24">
<path d="M35.244 13.1332C34.909 12.9432 34.497 12.9432 34.162 13.1332L25.229 18.2312C24.889 18.4212 24.699 18.7762 24.699 19.1542V29.3722C24.7012 29.5586 24.7512 29.7414 24.8441 29.903C24.9371 30.0646 25.07 30.1996 25.23 30.2952L34.163 35.3932C34.498 35.5832 34.91 35.5832 35.245 35.3932L44.178 30.2952C44.518 30.1052 44.708 29.7502 44.708 29.3722V19.1542C44.7058 18.9678 44.6559 18.7851 44.5629 18.6235C44.4699 18.4619 44.3371 18.3268 44.177 18.2312L35.244 13.1332Z" fill="white"/>
</mask>
<g mask="url(#mask1_1_764)">
<path fill-rule="evenodd" clip-rule="evenodd" d="M44.22 30.2952C44.475 30.1482 44.666 29.8952 44.75 29.6252L34.904 13.0092C34.649 12.9672 34.374 12.9892 34.14 13.1352L25.229 18.2112L34.841 35.5412C34.9806 35.5185 35.1163 35.4761 35.244 35.4152L44.22 30.2952Z" fill="url(#paint2_linear_1_764)"/>
<path d="M44.22 30.295L35.266 35.393C35.1395 35.4569 35.0033 35.4994 34.863 35.519L35.033 35.834L44.963 30.149V30.023L44.708 29.603C44.666 29.897 44.475 30.148 44.22 30.295Z" fill="url(#paint3_linear_1_764)"/>
<path d="M44.22 30.295L35.266 35.393C35.1395 35.4569 35.0033 35.4994 34.863 35.519L35.033 35.834L44.963 30.149V30.023L44.708 29.603C44.666 29.897 44.475 30.148 44.22 30.295Z" fill="url(#paint4_linear_1_764)"/>
</g>
<defs>
<linearGradient id="paint0_linear_1_764" x1="37.5708" y1="16.9332" x2="29.8306" y2="32.5433" gradientUnits="userSpaceOnUse">
<stop stop-color="#41873F"/>
<stop offset="0.3288" stop-color="#418B3D"/>
<stop offset="0.6352" stop-color="#419637"/>
<stop offset="0.9319" stop-color="#3FA92D"/>
<stop offset="1" stop-color="#3FAE2A"/>
</linearGradient>
<linearGradient id="paint1_linear_1_764" x1="33.6737" y1="25.4607" x2="52.6748" y2="11.5784" gradientUnits="userSpaceOnUse">
<stop offset="0.1376" stop-color="#41873F"/>
<stop offset="0.4032" stop-color="#54A044"/>
<stop offset="0.7136" stop-color="#66B848"/>
<stop offset="0.9081" stop-color="#6CC04A"/>
</linearGradient>
<linearGradient id="paint2_linear_1_764" x1="24.3722" y1="24.265" x2="45.0426" y2="24.265" gradientUnits="userSpaceOnUse">
<stop offset="0.09192" stop-color="#6CC04A"/>
<stop offset="0.2864" stop-color="#66B848"/>
<stop offset="0.5968" stop-color="#54A044"/>
<stop offset="0.8624" stop-color="#41873F"/>
</linearGradient>
<linearGradient id="paint3_linear_1_764" x1="24.373" y1="32.7357" x2="45.0435" y2="32.7357" gradientUnits="userSpaceOnUse">
<stop offset="0.09192" stop-color="#6CC04A"/>
<stop offset="0.2864" stop-color="#66B848"/>
<stop offset="0.5968" stop-color="#54A044"/>
<stop offset="0.8624" stop-color="#41873F"/>
</linearGradient>
<linearGradient id="paint4_linear_1_764" x1="48.0549" y1="26.5271" x2="41.645" y2="39.4563" gradientUnits="userSpaceOnUse">
<stop stop-color="#41873F"/>
<stop offset="0.3288" stop-color="#418B3D"/>
<stop offset="0.6352" stop-color="#419637"/>
<stop offset="0.9319" stop-color="#3FA92D"/>
<stop offset="1" stop-color="#3FAE2A"/>
</linearGradient>
</defs>
</svg>
