<svg width="14" height="24" viewBox="0 0 14 24" fill="none" xmlns="http://www.w3.org/2000/svg">
<path d="M2.63333 12.0384C3.75862 13.0134 5.17792 13.5836 6.66499 13.6582C8.15206 13.7328 9.62129 13.3074 10.8385 12.4499C12.0557 11.5924 12.9508 10.352 13.3811 8.92664C13.8114 7.50124 13.7522 5.97281 13.2128 4.585C12.6735 3.19718 11.6851 2.02986 10.4051 1.26912C9.12521 0.508373 7.62746 0.197994 6.15062 0.387453C4.67379 0.576913 3.30288 1.25531 2.25644 2.3145C1.20999 3.37369 0.548237 4.7527 0.376664 6.23172C-0.216669 9.24839 -0.210003 12.8434 1.15 16.0651C2.58666 19.4651 5.485 22.3317 10.4333 23.6267C10.5927 23.6701 10.759 23.6814 10.9228 23.6601C11.0866 23.6387 11.2445 23.5852 11.3874 23.5025C11.5303 23.4198 11.6555 23.3095 11.7556 23.1782C11.8557 23.0468 11.9288 22.897 11.9706 22.7372C12.0124 22.5775 12.0222 22.411 11.9993 22.2474C11.9765 22.0839 11.9214 21.9265 11.8374 21.7843C11.7533 21.6422 11.6419 21.5181 11.5096 21.4192C11.3774 21.3204 11.2268 21.2487 11.0667 21.2084C6.84833 20.1034 4.58 17.7584 3.45333 15.0917C3.04698 14.1144 2.77127 13.0878 2.63333 12.0384Z" fill="url(#paint0_linear_1_534)"/>
<defs>
<linearGradient id="paint0_linear_1_534" x1="0.000833511" y1="0.333252" x2="20.3527" y2="12.25" gradientUnits="userSpaceOnUse">
<stop stop-color="#F76680"/>
<stop offset="1" stop-color="#57007B"/>
</linearGradient>
</defs>
</svg>
