<svg width="14" height="24" viewBox="0 0 14 24" fill="none" xmlns="http://www.w3.org/2000/svg">
<path d="M11.3666 12.0384C10.2413 13.0134 8.82205 13.5836 7.33498 13.6582C5.84791 13.7328 4.37868 13.3074 3.16148 12.4499C1.94428 11.5924 1.04918 10.352 0.618868 8.92664C0.188555 7.50124 0.247797 5.97281 0.787149 4.585C1.3265 3.19718 2.31492 2.02986 3.59484 1.26912C4.87476 0.508373 6.37251 0.197994 7.84935 0.387453C9.32618 0.576913 10.6971 1.25531 11.7435 2.3145C12.79 3.37369 13.4517 4.7527 13.6233 6.23172C14.2166 9.24838 14.21 12.8434 12.85 16.0651C11.4133 19.4651 8.51497 22.3317 3.56664 23.6267C3.40729 23.6701 3.24092 23.6814 3.07717 23.6601C2.91341 23.6387 2.7555 23.5852 2.61256 23.5025C2.46962 23.4198 2.34449 23.3095 2.2444 23.1782C2.1443 23.0468 2.07122 22.897 2.02938 22.7372C1.98754 22.5775 1.97778 22.411 2.00064 22.2474C2.02351 22.0839 2.07856 21.9265 2.16261 21.7843C2.24666 21.6422 2.35804 21.5181 2.49032 21.4192C2.62261 21.3204 2.77317 21.2487 2.93331 21.2084C7.15164 20.1034 9.41997 17.7584 10.5466 15.0917C10.953 14.1144 11.2287 13.0878 11.3666 12.0384Z" fill="url(#paint0_linear_1_531)"/>
<defs>
<linearGradient id="paint0_linear_1_531" x1="13.9991" y1="0.333252" x2="-6.35274" y2="12.25" gradientUnits="userSpaceOnUse">
<stop stop-color="#F76680"/>
<stop offset="1" stop-color="#57007B"/>
</linearGradient>
</defs>
</svg>
